<?xml version="1.0" encoding="UTF-8" standalone="no"?><svg width="15px" height="24px" viewBox="0 0 15 24" version="1.1" xmlns="http://www.w3.org/2000/svg" xmlns:xlink="http://www.w3.org/1999/xlink">        <title>location</title>    <desc>Created with Sketch.</desc>    <defs></defs>    <g id="Page-1" stroke="none" stroke-width="1" fill="none" fill-rule="evenodd">        <g id="location" fill="#337ab7">            <path d="M7.5,0 C3.35786438,0 1.0658141e-15,3.35786438 0,7.5 C-5.32907052e-16,14.6616 7.5,24 7.5,24 C7.5,24 15,14.6616 15,7.5 C15,3.35786438 11.6421356,0 7.5,0 L7.5,0 Z M7.5,11.64 C5.26324676,11.64 3.45,9.82675324 3.45,7.59 C3.45,5.35324676 5.26324676,3.54 7.5,3.54 C9.73675324,3.54 11.55,5.35324676 11.55,7.59 C11.55,9.82675324 9.73675324,11.64 7.5,11.64 L7.5,11.64 Z" id="Shape"></path>        </g>    </g></svg>